<svg width="24" height="24" viewBox="0 0 24 24" fill="none" xmlns="http://www.w3.org/2000/svg">
<path d="M5.79384 13.6551C6.23282 13.6551 6.65382 13.4807 6.96423 13.1703C7.27463 12.8599 7.44902 12.4389 7.44902 11.9999C7.44902 11.5609 7.27463 11.1399 6.96423 10.8295C6.65382 10.5191 6.23282 10.3447 5.79384 10.3447C5.35487 10.3447 4.93387 10.5191 4.62346 10.8295C4.31306 11.1399 4.13867 11.5609 4.13867 11.9999C4.13867 12.4389 4.31306 12.8599 4.62346 13.1703C4.93387 13.4807 5.35487 13.6551 5.79384 13.6551ZM12.0007 13.6551C12.4397 13.6551 12.8607 13.4807 13.1711 13.1703C13.4815 12.8599 13.6559 12.4389 13.6559 11.9999C13.6559 11.5609 13.4815 11.1399 13.1711 10.8295C12.8607 10.5191 12.4397 10.3447 12.0007 10.3447C11.5618 10.3447 11.1408 10.5191 10.8304 10.8295C10.52 11.1399 10.3456 11.5609 10.3456 11.9999C10.3456 12.4389 10.52 12.8599 10.8304 13.1703C11.1408 13.4807 11.5618 13.6551 12.0007 13.6551ZM18.2076 13.6551C18.6466 13.6551 19.0676 13.4807 19.378 13.1703C19.6884 12.8599 19.8628 12.4389 19.8628 11.9999C19.8628 11.5609 19.6884 11.1399 19.378 10.8295C19.0676 10.5191 18.6466 10.3447 18.2076 10.3447C17.7687 10.3447 17.3477 10.5191 17.0373 10.8295C16.7268 11.1399 16.5525 11.5609 16.5525 11.9999C16.5525 12.4389 16.7268 12.8599 17.0373 13.1703C17.3477 13.4807 17.7687 13.6551 18.2076 13.6551Z" fill="#CFCFCF"/>
</svg>
