<svg width="44" height="44" viewBox="0 0 44 44" fill="none" xmlns="http://www.w3.org/2000/svg">
<path d="M19.499 35.1613C10.8527 35.1613 3.81836 28.127 3.81836 19.481C3.81836 10.8351 10.8527 3.80078 19.499 3.80078C28.1453 3.80078 35.1798 10.8351 35.1798 19.481C35.1798 28.127 28.1453 35.1613 19.499 35.1613ZM19.499 7.66034C12.9807 7.66034 7.67809 12.9631 7.67809 19.481C7.67809 25.9989 12.9807 31.3018 19.499 31.3018C26.0171 31.3018 31.3201 25.9989 31.3201 19.481C31.3201 12.9631 26.0171 7.66034 19.499 7.66034Z" fill="#333333"/>
<path d="M37.8131 40.1703C37.2051 40.1703 36.5975 39.9383 36.1335 39.4747L27.9412 31.2831C27.0137 30.3556 27.0137 28.8517 27.9412 27.9239C28.8691 26.9967 30.3727 26.9967 31.3005 27.9239L39.4928 36.1156C40.4203 37.0431 40.4203 38.547 39.4928 39.4747C39.0288 39.9383 38.4212 40.1703 37.8131 40.1703Z" fill="#333333"/>
</svg>
