<svg width="44" height="44" viewBox="0 0 44 44" fill="none" xmlns="http://www.w3.org/2000/svg">
<path d="M19.1709 2.90527C20.8274 1.69867 23.1746 1.69869 24.8311 2.90527L38.2871 12.7051C39.8815 13.8676 40.8694 15.6027 40.9883 17.8584L41 18.3164V35.1943C41 37.5299 38.5512 39.9999 35.2607 40H30.5703C29.6991 39.9998 29.1193 39.3594 29.1191 38.7227V32.6934C29.119 30.816 27.5026 29.4162 25.668 29.416H18.332C16.4974 29.4162 14.881 30.816 14.8809 32.6934V38.7227C14.8807 39.3594 14.3009 39.9998 13.4297 40H8.73926C5.49954 39.9999 3.00014 37.5761 3 34.7393V17.8604C3.00028 15.8702 3.98489 13.9646 5.71289 12.7051L5.71191 12.7041L19.1709 2.90527ZM17.3867 18.5713C15.6328 18.5713 14.0774 19.9072 14.0771 21.7139C14.0771 23.5172 15.6288 24.8574 17.3867 24.8574H26.6113C28.3676 24.8572 29.9229 23.5184 29.9229 21.7139C29.9226 19.9108 28.3711 18.5713 26.6133 18.5713H17.3867Z" stroke="white" stroke-width="2"/>
</svg>
