<svg width="46" height="49" viewBox="0 0 46 49" fill="none" xmlns="http://www.w3.org/2000/svg">
<path d="M45.9671 44.076L42.4714 10.3606C42.3606 9.5042 41.9441 8.71663 41.2985 8.14296C40.653 7.56929 39.822 7.24814 38.9585 7.23865H32.8064C32.161 5.14257 30.8607 3.30857 29.0964 2.00577C27.3321 0.702979 25.1967 0 23.0035 0C20.8103 0 18.6748 0.702979 16.9105 2.00577C15.1462 3.30857 13.8459 5.14257 13.2005 7.23865H7.03122C6.16768 7.24814 5.33664 7.56929 4.69113 8.14296C4.04561 8.71663 3.62909 9.5042 3.51824 10.3606L0.0282703 44.076C-0.230459 46.5368 1.31617 48.5836 3.46075 48.5836H42.5232C44.6792 48.5779 46.2259 46.5253 45.9729 44.076H45.9671ZM23.0035 4.0304C25.332 4.0304 27.3559 5.3298 28.3965 7.23865H17.6046C18.6396 5.3298 20.6691 4.0304 23.0035 4.0304ZM15.1898 25.1772C14.7654 25.1773 14.3452 25.0938 13.9531 24.9314C13.561 24.7691 13.2048 24.5311 12.9047 24.231C12.6046 23.9309 12.3665 23.5747 12.2041 23.1826C12.0417 22.7906 11.9581 22.3704 11.9581 21.946C11.9581 21.5216 12.0417 21.1014 12.2041 20.7093C12.3665 20.3173 12.6046 19.961 12.9047 19.661C13.2048 19.3609 13.561 19.1229 13.9531 18.9606C14.3452 18.7982 14.7654 18.7147 15.1898 18.7147C16.0467 18.7149 16.8685 19.0554 17.4743 19.6613C18.0802 20.2673 18.4206 21.0891 18.4206 21.946C18.4206 22.8029 18.0802 23.6247 17.4743 24.2306C16.8685 24.8366 16.0467 25.1771 15.1898 25.1772ZM30.8113 25.1772C30.387 25.1773 29.9667 25.0938 29.5746 24.9314C29.1826 24.7691 28.8263 24.5311 28.5262 24.231C28.2261 23.9309 27.988 23.5747 27.8256 23.1826C27.6632 22.7906 27.5796 22.3704 27.5796 21.946C27.5796 21.5216 27.6632 21.1014 27.8256 20.7093C27.988 20.3173 28.2261 19.961 28.5262 19.661C28.8263 19.3609 29.1826 19.1229 29.5746 18.9606C29.9667 18.7982 30.387 18.7147 30.8113 18.7147C31.6682 18.7149 32.49 19.0554 33.0959 19.6613C33.7017 20.2673 34.0421 21.0891 34.0421 21.946C34.0421 22.8029 33.7017 23.6247 33.0959 24.2306C32.49 24.8366 31.6682 25.1771 30.8113 25.1772Z" fill="white"/>
</svg>
